<?xml version="1.0" encoding="utf-8"?>
<!-- Generator: Adobe Illustrator 18.1.1, SVG Export Plug-In . SVG Version: 6.00 Build 0)  -->
<!DOCTYPE svg PUBLIC "-//W3C//DTD SVG 1.1//EN" "http://www.w3.org/Graphics/SVG/1.1/DTD/svg11.dtd">
<svg version="1.1" id="Layer_1" xmlns="http://www.w3.org/2000/svg" xmlns:xlink="http://www.w3.org/1999/xlink" x="0px" y="0px"
	 viewBox="-54.7 319.7 181.3 136" enable-background="new -54.7 319.7 181.3 136" xml:space="preserve">
<path fill="#91CCCE" d="M122.7,326l-165.9,34.1c-10.2,53.9-6.1,61.6-6.1,61.6l95.6-6.1c0.9-17.5,15.3-31.4,33.1-31.4
	c13,0,24.3,7.5,29.7,18.4l6-51.9L122.7,326z"/>
<path fill="#333333" d="M79.5,444.9c15.3,0,27.7-12.4,27.7-27.7c0-15.3-12.4-27.7-27.7-27.7s-27.7,12.4-27.7,27.7
	c0,4.8,1.2,9.3,3.4,13.2H53l-66.7,6c-1.3-4.9-5.8-8.4-11-8.4c-6.3,0-11.4,5.1-11.4,11.4c0,6.3,5.1,11.4,11.4,11.4
	c5.6,0,10.2-4,11.2-9.2l69.9-6h2.6C64,441.3,71.3,444.9,79.5,444.9z M79.5,406.8c5.8,0,10.4,4.7,10.4,10.4c0,5.8-4.7,10.4-10.4,10.4
	s-10.4-4.7-10.4-10.4C69.1,411.4,73.8,406.8,79.5,406.8z"/>
<circle fill="#91CCCE" cx="79.5" cy="417.2" r="6.4"/>
<linearGradient id="SVGID_1_" gradientUnits="userSpaceOnUse" x1="73.4186" y1="491.0008" x2="-1.2232" y2="330.9309" gradientTransform="matrix(1 0 0 -1 0 794)">
	<stop  offset="0" style="stop-color:#FFFFFF;stop-opacity:0.35"/>
	<stop  offset="0.9877" style="stop-color:#FFFFFF;stop-opacity:0"/>
</linearGradient>
<path fill="url(#SVGID_1_)" d="M115.2,350.6l-6,51.9c-5.4-10.9-16.7-18.4-29.7-18.4c-17.7,0-32.2,13.9-33.1,31.4l-95.6,6.1
	c0,0-4.1-7.7,6.1-61.6L122.7,326L115.2,350.6z M58.9,435.6h-2.6l-69.9,6c-1,5.3-5.7,9.2-11.2,9.2c-6.3,0-11.4-5.1-11.4-11.4
	c0-6.3,5.1-11.4,11.4-11.4c5.3,0,9.7,3.6,11,8.4l66.7-6h2.3c-2.1-3.9-3.4-8.4-3.4-13.2c0-15.3,12.4-27.7,27.7-27.7
	s27.7,12.4,27.7,27.7c0,15.3-12.4,27.7-27.7,27.7C71.3,444.9,64,441.3,58.9,435.6z M69.1,417.2c0,5.8,4.7,10.4,10.4,10.4
	S90,423,90,417.2c0-5.8-4.7-10.4-10.4-10.4S69.1,411.4,69.1,417.2z M73.1,417.2c0,3.6,2.9,6.4,6.4,6.4c3.5,0,6.4-2.9,6.4-6.4
	c0-3.6-2.9-6.4-6.4-6.4S73.1,413.6,73.1,417.2z"/>
</svg>
