<?xml version="1.0" encoding="utf-8"?>
<!-- Generator: Adobe Illustrator 18.1.1, SVG Export Plug-In . SVG Version: 6.00 Build 0)  -->
<!DOCTYPE svg PUBLIC "-//W3C//DTD SVG 1.1//EN" "http://www.w3.org/Graphics/SVG/1.1/DTD/svg11.dtd">
<svg version="1.1" id="Layer_1" xmlns="http://www.w3.org/2000/svg" xmlns:xlink="http://www.w3.org/1999/xlink" x="0px" y="0px"
	 viewBox="654 -144 2176 322" enable-background="new 654 -144 2176 322" xml:space="preserve">
<g id="f100_1_">
	<path id="f100" fill="#BBBBBB" d="M1764.3-119.5v274c0,13,11,23,24,23h464c13,0,24-10,24-23v-274c0-13-11-24-24-24h-464
		C1775.3-143.5,1764.3-132.5,1764.3-119.5z M2238.3-3.5L2238.3-3.5L2238.3-3.5v-60h-14v41l-26-41h-21v57l-25-57h-21l-20,47h-7
		c-4,0-8-1-10-3c-3-3-4-8-4-14s3-11,5-14c3-3,6-4,11-4h13v-12h-14c-10,0-16,2-21,7c-6,6-8,14-8,23c0,11,3,18,8,23s13,7,20,7h17l5-14
		h30l6,14h29v-45l27,45H2238.3L2238.3-3.5z M2069.3-3.5L2069.3-3.5L2069.3-3.5v-60h-15v60H2069.3L2069.3-3.5z M2046.3-47.5
		L2046.3-47.5L2046.3-47.5c0-7-2-11-7-14s-10-2-17-2h-33v60h14v-22h15c5,0,9,0,11,2c3,3,2,8,2,12v8h15v-12c0-5-1-8-3-11
		c-1-2-4-4-7-5C2040.3-32.5,2046.3-37.5,2046.3-47.5L2046.3-47.5z M1978.3-3.5L1978.3-3.5L1978.3-3.5v-13h-33v-12h33v-12h-33v-11h33
		v-12h-47v60H1978.3L1978.3-3.5z M1920.3-3.5L1920.3-3.5L1920.3-3.5v-60h-24l-17,40l-19-40h-23v57l-24-57h-22l-25,60h15l6-14h30
		l5,14h29v-47l21,47h12l21-47v47H1920.3L1920.3-3.5z M2151.3-29.5L2151.3-29.5L2151.3-29.5h-19l10-25L2151.3-29.5L2151.3-29.5z
		 M2020.3-38.5h-17v-13h18c3,0,4,0,6,1s3,2,3,5s-1,5-3,6c0,0,2-1,0,0l0,0l0,0C2025.3-38.5,2023.3-38.5,2020.3-38.5z M1792.3-29.5
		l10-25l9,25H1792.3z M1766.3,7.5L1766.3,7.5L1766.3,7.5v-44l17-39h37l5,9v-9h44l10,21l9-21h139c6,0,12,0,16,4v-4h38v4
		c7-4,15-4,24-4h55l5,9v-9h41l5,9v-9h40v83h-40l-8-12v12h-50l-5-13h-13l-5,13h-26c-10,0-18-2-23-5v5h-62v-19c0-3,0-3-2-3h-2v22h-120
		v-10l-4,10h-25l-4-10v10h-48l-6-13h-12l-6,13H1766.3L1766.3,7.5z M2274.3,91.5L2274.3,91.5L2274.3,91.5v16c-6,3-13,4-21,4h-37v-6
		c-4,3-12,6-19,6h-117v-20c0-2-1-2-3-2h-1v22h-39v-23c-6,3-14,3-20,3h-4v20h-47l-12-14l-12,14h-75v-84h77l11,13l12-13h51
		c6,0,16,1,20,5v-5h47c4,0,13,1,19,5v-5h70v5c3-3,11-5,17-5h39v5c4-3,10-5,18-5h26v12h-28c-15,0-21,9-21,18c0,19,17,18,30,18
		c2,0,5,0,6,1s1,2,1,4s0,3-1,4s-3,2-6,2h-28v13h28C2264.3,99.5,2271.3,96.5,2274.3,91.5L2274.3,91.5z M2043.3,59.5L2043.3,59.5
		L2043.3,59.5c0-17-13-20-24-20h-46l-18,19l-18-19h-57v60h56l19-20l17,20h28v-20h18C2031.3,79.5,2043.3,76.5,2043.3,59.5
		L2043.3,59.5z M1894.3,86.5v-12h31v-12h-31v-11h36l15,18l-16,17l0,0l0,0l0,0H1894.3z M1964.3,69.5l22-24v48l0,0l0,0l0,0
		L1964.3,69.5z M2000.3,67.5v-16h19c5,0,8,3,8,8s-3,8-9,8l0,0l0,0l0,0H2000.3z M2115.3,39.5L2115.3,39.5L2115.3,39.5v60h48v-13h-34
		v-12h33v-12h-33v-11h34v-12H2115.3L2115.3,39.5z M2097.3,71.5L2097.3,71.5C2101.3,69.5,2097.3,71.5,2097.3,71.5c4-2,10-6,10-16
		c0-7-3-10-8-13s-10-3-17-3h-33v60h15v-22h15c5,0,8,1,10,3c3,3,3,7,3,11v8h14v-12c0-5,0-8-2-11C2103.3,74.5,2100.3,72.5,2097.3,71.5
		L2097.3,71.5z M2081.3,65.5h-17v-14h17c3,0,5,0,7,1s3,3,3,6s-1,4-3,5c0,0,2-1,0,0l0,0l0,0C2086.3,64.5,2084.3,65.5,2081.3,65.5z
		 M2217.3,67.5L2217.3,67.5C2214.3,64.5,2217.3,67.5,2217.3,67.5c-3-3-8-5-16-5h-8c-2,0-3,0-5-1s-4-2-4-4s1-3,3-4c1-1,2-1,5-1h27
		v-13h-29c-15,0-21,9-21,18c0,19,18,18,31,18c2,0,4,1,5,2s1,2,1,4s0,3-1,4s-3,1-6,1h-28v13h28c14,0,22-6,22-19
		C2221.3,74.5,2220.3,70.5,2217.3,67.5L2217.3,67.5z M2274.3,69.5c0-1,0-2-1-2c-3-3-8-5-16-5h-8c-2,0-4,1-6,0s-3-3-3-5s0-3,2-4
		c1-1,3-1,6-1h26V69.5z"/>
</g>
<g id="f102_1_">
	<path id="f102" fill="#BBBBBB" d="M1211,154.5c0,13,11,23,24,23h464c13,0,24-10,24-23v-274c0-13-11-24-24-24h-464
		c-13,0-24,11-24,24V154.5z M1434-17.5c6-21,18-40,33-55c15,15,26,34,32,55h9c-6-25-20-47-39-64c21-17,48-28,78-28
		c68,0,123,55,123,122s-55,122-123,122c-29,0-56-10-77-27c18-16,31-37,38-60h-10c-6,19-17,37-31,51c-14-14-26-32-32-51h-9
		c7,24,19,44,37,60c-21,17-48,28-77,28c-68,0-123-55-123-123s55-123,123-123c30,0,57,11,78,29c-19,17-33,39-39,64H1434z M1646-0.5
		c0,0-5-7-13-7c-12,0-21,14-21,30c0,10,5,20,16,20c8,0,11-5,11-5v5h12l10-60h-13l0,0l0,0l0,0L1646-0.5z M1632,30.5c-5,0-7-4-7-10
		c0-10,4-16,10-16c5,0,7,3,7,10l0,0l0,0l0,0C1642,21.5,1639,30.5,1632,30.5z M1613,7.5c2-8,3-11,5-14c0,0,0-1-2-1c-6,0-10,8-10,8
		l1-7h-12l-8,49h13l0,0l0,0l0,0C1604,21.5,1604,4.5,1613,7.5z M1556-4.5l-2,11c0,0,6-3,14-3c5,0,8,1,8,5v3h-6c-11,0-22,5-22,19
		c0,11,7,14,12,14c9,0,13-6,13-6v5h11l4-36c0-15-13-15-17-15l0,0l0,0l0,0C1562-7.5,1556-4.5,1556-4.5z M1565,34.5c-4,0-5-3-5-5
		c0-4,2-8,11-8h3l0,0l0,0l0,0C1574,23.5,1573,34.5,1565,34.5z M1545,28.5c0,0-7,4-11,4c-9,0-13-8-13-15c0-15,8-23,17-23
		c7,0,11,3,11,3l3-13c0,0-8-4-15-4c-15,0-29,13-29,37c0,16,8,27,23,27c4,0,11-2,11-2l0,0l0,0l0,0L1545,28.5z M1506,7.5
		c2-8,2-11,4-14c0,0,0-1-2-1c-6,0-10,8-10,8l1-7h-12l-8,49h13l0,0l0,0l0,0C1496,21.5,1497,4.5,1506,7.5z M1461,44.5c9,0,14-3,14-3
		l2-12c0,0-8,3-14,3c-14,0-11-10-11-10h26c0,0,2-9,2-12c0-8-5-18-19-18c-13,0-22,13-22,29l0,0l0,0l0,0
		C1439,39.5,1451,44.5,1461,44.5z M1467,12.5h-14c0-1,1-9,8-9c0,0-7,0,0,0l0,0l0,0C1468,3.5,1467,11.5,1467,12.5z M1436,31.5h-3
		c-4,0-5-2-5-4l4-22h6l2-12h-6l1-7h-13c0,0-7,41-7,46c0,7,4,11,10,11c5,0,9-2,10-2c0,0-1,0,0,0l0,0l0,0L1436,31.5z M1413,26.5
		c0-16-15-12-15-18c0-3,3-5,7-5c2,0,8,1,8,1l2-11c0,0-4-1-11-1c-9,0-19,3-19,16c0,14,16,13,16,19c0,4-5,5-8,5c-6,0-11-2-11-2l-2,11
		c0,0,4,1,14,1c0,0-10,0,0,0l0,0l0,0C1397,42.5,1413,43.5,1413,26.5z M1349-4.5l-2,11c0,0,6-3,14-3c5,0,8,1,8,5v3h-6
		c-11,0-22,5-22,19c0,11,7,14,12,14c9,0,13-6,13-6v5h11l5-36c0-15-14-15-18-15l0,0l0,0l0,0C1355-7.5,1349-4.5,1349-4.5z M1358,34.5
		c-4,0-5-3-5-5c0-4,2-8,11-8h3l0,0l0,0l0,0C1367,23.5,1366,34.5,1358,34.5z M1304-2.5l1,45h9l16-45l-7,45h13l10-60h-20l-13,37v-37
		h-19l-10,60h12l0,0l0,0l0,0L1304-2.5z"/>
</g>
<g id="f105_1_">
	<path id="f105" fill="#BBBBBB" d="M777,24l3,17l32-85h34L795,81h-34L734-20c16,9,30,18,38,32c-2-4-5-9-8-14c-4-6-13-13-17-16
		c-13-11-29-19-48-24v-2h52c7,0,13,2,15,10L777,24L777,24z M654-120v274c0,13,11,24,24,24h464c13,0,24-11,24-24v-274
		c0-13-11-24-24-24H678C665-144,654-133,654-120z M859-44h34L872,81h-33L859-44z M984-15l-3-2c-6-3-13-5-24-5c-13,0-18,6-18,11
		c0,6,7,10,18,16c19,9,27,20,27,34c0,26-22,44-56,44c-14,0-28-3-36-7l5-29l4,2c11,5,17,7,30,7c9,0,19-4,19-12c0-6-3-10-16-16
		c-12-6-29-16-29-34c0-25,23-42,55-42c12,0,23,2,29,5L984-15z M1099,81h-30c0,0-3-15-4-19h-42c-1,3-7,19-7,19h-34l49-115
		c3-8,9-10,17-10h25L1099,81z M1060,36c-1-6-8-36-8-36l-2-10c-2,5-4,11-4,11s-10,28-13,35H1060z"/>
</g>
<g id="f101_1_">
	<path id="f101" fill="#BBBBBB" d="M2318-119.5v274c0,13,11,23,24,23h464c13,0,24-10,24-23v-274c0-13-11-24-24-24h-464
		C2329-143.5,2318-132.5,2318-119.5z M2824,30.5v119c0,4-2,9-6,14s-14,7-14,7h-371C2685,127.5,2824,30.5,2824,30.5z M2407-13.5
		c0,11-5,21-13,28c-7,6-16,8-27,8h-21v-73h21C2390-50.5,2407-34.5,2407-13.5z M2427-50.5v73h-13v-73H2427z M2484,0.5
		c0,14-10,24-25,24c-11,0-19-3-26-13l9-9c3,6,9,9,16,9c6,0,11-4,11-10c0-3-1-5-4-7c-1-1-4-3-10-5c-13-5-18-10-18-20
		c0-12,10-21,23-21c8,0,15,3,21,8l-7,10c-4-4-8-6-12-6c-6,0-10,3-10,8c0,4,2,7,11,10C2479-15.5,2484-11.5,2484,0.5z M2527-51.5
		c6,0,12,2,18,5v16c-6-6-11-8-18-8c-13,0-24,11-24,25c0,15,10,25,24,25c6,0,12-2,18-8v17c-6,3-12,4-18,4c-22,0-39-17-39-38
		S2505-51.5,2527-51.5z M2678-50.5h15l-31,75h-8l-31-75h16l19,50L2678-50.5z M2699-50.5h41v13h-26v16h25v12h-25v20h26v12h-41V-50.5z
		 M2780-7.5l24,30h-18l-20-29h-2v29h-14v-73h21c17,0,26,8,26,22C2797-17.5,2791-9.5,2780-7.5z M2548-12.5c0-22,19-41,41-41
		s40,19,40,41s-18,40-40,40S2548,9.5,2548-12.5z M2384,4.5c5-4,8-11,8-18s-3-14-8-18s-10-6-19-6h-4v48h4
		C2374,10.5,2379,8.5,2384,4.5S2384,4.5,2384,4.5z M2782-27.5c0-7-4-11-13-11h-5v22h4C2777-16.5,2782-20.5,2782-27.5z"/>
</g>
</svg>
